<?xml version="1.0" encoding="UTF-8"?>
<svg version="1.1" xmlns="http://www.w3.org/2000/svg" width="709" height="709">
<path d="M0 0 C233.97 0 467.94 0 709 0 C709 233.97 709 467.94 709 709 C475.03 709 241.06 709 0 709 C0 475.03 0 241.06 0 0 Z " fill="#FEFEFE" transform="translate(0,0)"/>
<path d="M0 0 C3.91138353 1.28663386 5.82759482 2.53886612 8.19921875 5.89453125 C8.76334473 6.67844238 9.3274707 7.46235352 9.90869141 8.27001953 C10.78920166 9.52854736 10.78920166 9.52854736 11.6875 10.8125 C12.93763749 12.55682482 14.18894341 14.30031283 15.44140625 16.04296875 C16.05000488 16.89552246 16.65860352 17.74807617 17.28564453 18.62646484 C19.49524304 21.68566688 21.7966612 24.6551416 24.125 27.625 C29.40075392 34.43158743 34.32706833 41.46962419 39.25683594 48.52880859 C40.95144898 50.93117179 42.66849643 53.31657661 44.38812256 55.70106506 C50.71767943 64.49592897 56.75477225 73.47498991 62.75 82.5 C63.27502106 83.28924866 63.80004211 84.07849731 64.3409729 84.8916626 C81.62656035 110.88616709 97.9613482 137.22798348 112.76074219 164.72900391 C113.89189893 166.80189989 115.05476796 168.85121447 116.23828125 170.89453125 C117.53312918 173.17702373 118.66518831 175.32156078 119.625 177.75 C120.90789771 181.06406226 120.90789771 181.06406226 123 184 C123 185.32 123 186.64 123 188 C123.66 188 124.32 188 125 188 C125.29132813 188.71542969 125.58265625 189.43085938 125.8828125 190.16796875 C128.08366982 195.51785147 130.36098587 200.78950297 132.875 206 C136.94865048 214.74421118 139.95163428 223.85856014 143 233 C143.3700415 234.09030518 143.3700415 234.09030518 143.74755859 235.20263672 C143.97910645 235.88729004 144.2106543 236.57194336 144.44921875 237.27734375 C144.74638794 238.15314087 144.74638794 238.15314087 145.04956055 239.04663086 C149.51888598 253.10576715 151.49251694 266.48805476 151.33618164 281.19116211 C151.31247867 283.56463549 151.31566764 285.93698375 151.32226562 288.31054688 C151.30063606 300.50693646 150.51084233 312.24620023 147 324 C146.54976307 325.70148956 146.10530453 327.40452385 145.66796875 329.109375 C143.13902381 338.8062288 140.66097683 348.08052624 136 357 C135.39406834 358.23678332 134.79147271 359.47520412 134.19140625 360.71484375 C128.18280876 373.06137902 121.96868045 385.0095153 113.32470703 395.73901367 C111.65060135 397.81777843 110.11736622 399.76095263 108.9375 402.1640625 C107.76963847 404.45112466 106.35510506 405.62489386 104.375 407.25 C101.47401628 409.69705281 98.76256053 412.20880424 96.125 414.9375 C84.30918647 426.84490898 69.4479026 436.44570572 54 443 C53.01 443 52.02 443 51 443 C51 443.66 51 444.32 51 445 C44.86567926 446.7930556 38.72157385 448.5471546 32.56689453 450.26904297 C30.56595926 450.83883564 28.57550078 451.44546196 26.58984375 452.06640625 C16.26018097 455.00758946 5.44873314 454.3371088 -5.18945312 454.06933594 C-7.44353668 454.0137279 -9.69839526 453.98993046 -11.953125 453.9765625 C-23.87308386 453.60226427 -38.93641845 450.67822231 -49 444 C-50.46622905 443.40459035 -51.94630827 442.84229949 -53.4375 442.3125 C-66.09941572 437.32276729 -76.65667803 429.6717731 -87 421 C-87.86882812 420.27425781 -88.73765625 419.54851562 -89.6328125 418.80078125 C-94.55878984 414.55108215 -98.8403581 409.99157028 -103 405 C-103.78375 404.0925 -104.5675 403.185 -105.375 402.25 C-120.91729598 384.05414129 -120.91729598 384.05414129 -121.0546875 378.98046875 C-119.45210449 375.97117398 -116.98790141 373.9989439 -114.4375 371.8125 C-113.33073308 370.82321387 -112.22657183 369.83100512 -111.125 368.8359375 C-110.58617187 368.34963867 -110.04734375 367.86333984 -109.4921875 367.36230469 C-90.98742098 350.46822793 -79.96920884 323.77998037 -78.55859375 298.9609375 C-77.94564202 277.14580355 -83.01752326 258.61087745 -92.875 239.25 C-102 221.14731319 -102 221.14731319 -102 218 C-102.66 218 -103.32 218 -104 218 C-104.3815625 217.03449219 -104.763125 216.06898438 -105.15625 215.07421875 C-107.16683278 210.38639869 -109.81210627 206.13665794 -112.5 201.8125 C-112.98597656 201.01908203 -113.47195313 200.22566406 -113.97265625 199.40820312 C-116.6569971 195.03411988 -116.6569971 195.03411988 -119.66503906 190.88208008 C-121 189 -121 189 -120.953125 186.8046875 C-119.56703555 182.72594888 -117.70037096 178.96115512 -115.75 175.125 C-115.30962402 174.25294922 -114.86924805 173.38089844 -114.41552734 172.48242188 C-94.71842283 133.92173583 -70.7368674 97.47344968 -46 62 C-45.53706543 61.33516602 -45.07413086 60.67033203 -44.59716797 59.98535156 C-36.59370602 48.5116491 -28.34755862 37.22520703 -20 26 C-19.4524707 25.26265625 -18.90494141 24.5253125 -18.34082031 23.765625 C-12.36639863 15.72744362 -6.33909192 7.75606541 0 0 Z " fill="#78BEF8" transform="translate(380,128)"/>
<path d="M0 0 C0.99 0 1.98 0 3 0 C4.8046875 1.9921875 4.8046875 1.9921875 6.875 4.875 C7.45157349 5.66934448 7.45157349 5.66934448 8.03979492 6.47973633 C8.89815596 7.6648837 9.75197999 8.85332587 10.60205078 10.04443359 C12.07642134 12.10690445 13.56601286 14.1577051 15.05859375 16.20703125 C17.83837176 20.02917326 20.59988345 23.86406506 23.35351562 27.70507812 C24.42046984 29.19223258 25.48936065 30.6780003 26.56054688 32.16210938 C53.54437221 69.56440009 84.3387997 113.9451819 78.74511719 162.19873047 C78.12857098 165.8951445 77.11999616 169.42968359 76 173 C75.72736328 174.20462891 75.72736328 174.20462891 75.44921875 175.43359375 C70.92582136 194.17338295 56.46213764 212.02146325 41 223 C38.6171875 223.796875 38.6171875 223.796875 37 224 C37 224.66 37 225.32 37 226 C34.62414188 226.95034325 32.24811342 227.90022004 29.87109375 228.84765625 C28.00546744 229.59644504 26.14324674 230.35379595 24.28515625 231.12109375 C23.42792969 231.47300781 22.57070312 231.82492187 21.6875 232.1875 C20.51767578 232.67283203 20.51767578 232.67283203 19.32421875 233.16796875 C6.37737995 237.80271945 -10.54064563 236.25657432 -23 231 C-23.79019531 230.69964844 -24.58039063 230.39929688 -25.39453125 230.08984375 C-45.93419705 221.78045181 -60.13146265 204.21341394 -69.46484375 184.6640625 C-79.08703741 161.69811428 -80.45213708 137.27338889 -71 114 C-69.81411071 111.31401145 -68.57288994 108.73399265 -67.15625 106.1640625 C-65.45421048 102.97848852 -64.21896291 99.63647351 -62.9140625 96.2734375 C-61.76613095 93.4183257 -60.43248991 90.72173084 -59 88 C-58.34 88 -57.68 88 -57 88 C-56.87955322 87.26241455 -56.75910645 86.5248291 -56.63500977 85.76489258 C-56.01348255 83.05870432 -55.19752297 81.16661623 -53.83984375 78.76171875 C-53.38416016 77.95379883 -52.92847656 77.14587891 -52.45898438 76.31347656 C-51.95689453 75.4469043 -51.45480469 74.58033203 -50.9375 73.6875 C-50.41091797 72.77323242 -49.88433594 71.85896484 -49.34179688 70.91699219 C-42.73311992 59.61348057 -35.40992538 48.78877417 -28 38 C-27.46375 37.21641113 -26.9275 36.43282227 -26.375 35.62548828 C-20.27411883 26.74227165 -13.89546075 18.06380071 -7.4375 9.4375 C-6.74591797 8.50139893 -6.05433594 7.56529785 -5.34179688 6.60083008 C-4.36629883 5.3114856 -4.36629883 5.3114856 -3.37109375 3.99609375 C-2.79286865 3.22450928 -2.21464355 2.4529248 -1.61889648 1.65795898 C-1.08466064 1.11083252 -0.5504248 0.56370605 0 0 Z " fill="#78BEF8" transform="translate(207,273)"/>
<path d="M0 0 C4.02772228 1.54001146 5.8301525 4.02844661 8.375 7.4375 C9.00921875 8.28272217 9.00921875 8.28272217 9.65625 9.14501953 C10.59598982 10.4012503 11.5316443 11.66054429 12.46386719 12.92236328 C14.10462403 15.14150517 15.75898008 17.35011919 17.4140625 19.55859375 C24.59251281 29.17547267 31.50333199 38.91042197 38 49 C38.48742676 49.75313477 38.97485352 50.50626953 39.47705078 51.28222656 C54.39279997 74.38270681 54.39279997 74.38270681 59 86 C59.45375 86.721875 59.9075 87.44375 60.375 88.1875 C62.2656477 91.45977486 63.59307658 94.79597322 64.953125 98.31640625 C65.64330336 100.08563212 66.36160837 101.84417728 67.109375 103.58984375 C67.46515625 104.42644531 67.8209375 105.26304687 68.1875 106.125 C68.51105469 106.87007813 68.83460938 107.61515625 69.16796875 108.3828125 C75.43713395 128.10272181 71.52046585 152.40304215 62.20947266 170.45483398 C59.08679134 176.1749596 55.30360483 181.11285553 51 186 C50.5565625 186.6084375 50.113125 187.216875 49.65625 187.84375 C44.88524468 194.24387909 37.72473191 197.94156531 31 202 C30.09378906 202.58265625 29.18757812 203.1653125 28.25390625 203.765625 C26 205 26 205 23 205 C21.15849913 201.20867469 20.62594469 199.02401912 22 195 C24.22265625 193.04296875 24.22265625 193.04296875 27.0625 191.1875 C35.93728885 185.04518171 42.1653244 178.05482567 48 169 C48.51691406 168.22527344 49.03382813 167.45054687 49.56640625 166.65234375 C51.30636727 163.43317882 52.18618431 160.28349528 53.125 156.75 C54.90651558 150.09348442 54.90651558 150.09348442 56 149 C56.07226502 147.14712498 56.0838122 145.29166122 56.0625 143.4375 C56.05347656 142.42558594 56.04445313 141.41367187 56.03515625 140.37109375 C56.02355469 139.58863281 56.01195312 138.80617188 56 138 C55.65066406 138.91523438 55.30132813 139.83046875 54.94140625 140.7734375 C54.48636719 141.96195313 54.03132812 143.15046875 53.5625 144.375 C53.11003906 145.55835938 52.65757812 146.74171875 52.19140625 147.9609375 C51 151 51 151 50 153 C49.34 153 48.68 153 48 153 C48 154.32 48 155.64 48 157 C47.34 157 46.68 157 46 157 C45.75121094 157.68191406 45.50242187 158.36382812 45.24609375 159.06640625 C41.32364999 168.30074877 35.40503201 176.81078071 29.25 184.6875 C28.80277588 185.26298584 28.35555176 185.83847168 27.89477539 186.43139648 C25.22351984 189.76439826 22.43270061 192.46251807 19 195 C18.37237545 193.77217138 17.74803935 192.54266164 17.125 191.3125 C16.77695312 190.62800781 16.42890625 189.94351563 16.0703125 189.23828125 C14.93381279 186.8615866 13.97457652 184.44735073 13 182 C4.03612694 161.65683897 -6.76031698 142.15847381 -18 123 C-18.85634033 121.53457764 -18.85634033 121.53457764 -19.72998047 120.03955078 C-21.56032888 116.91637275 -23.40169344 113.80008288 -25.25 110.6875 C-25.86520508 109.65141602 -26.48041016 108.61533203 -27.11425781 107.54785156 C-30.4421106 102.01741581 -33.89420158 96.61842954 -37.58203125 91.32421875 C-38.33000977 90.24245361 -39.07798828 89.16068848 -39.84863281 88.04614258 C-41.29443604 85.97517455 -42.76050397 83.91816719 -44.24902344 81.87768555 C-49.06676256 74.98660224 -49.06676256 74.98660224 -48.75390625 70.36328125 C-46.6026011 66.23794999 -44.36400022 62.24349663 -41.875 58.3125 C-41.38217529 57.52157959 -40.88935059 56.73065918 -40.3815918 55.91577148 C-33.96493605 45.66684497 -27.21052535 35.70934534 -20 26 C-19.54044922 25.38044434 -19.08089844 24.76088867 -18.60742188 24.12255859 C-12.547739 15.96331805 -6.43269362 7.87058985 0 0 Z " fill="#79BEF8" transform="translate(508,135)"/>
<path d="M0 0 C0.33 0 0.66 0 1 0 C1.50329356 12.07904541 0.56418929 22.45518965 -3 34 C-3.36222656 35.25554687 -3.72445312 36.51109375 -4.09765625 37.8046875 C-9.8529038 56.57264729 -20.47043623 72.86809264 -34 87 C-35.06734375 88.17949219 -35.06734375 88.17949219 -36.15625 89.3828125 C-45.61333252 99.45525313 -57.81348369 108.46227099 -70 115 C-70.66 115 -71.32 115 -72 115 C-70.47584736 111.43821015 -68.35813741 109.09678156 -65.6875 106.3125 C-46.93843792 86.19214506 -30.07186114 61.67651058 -18 37 C-17.34 37 -16.68 37 -16 37 C-15.90460938 36.30519531 -15.80921875 35.61039062 -15.7109375 34.89453125 C-14.85889017 31.42548141 -13.38739377 28.79213881 -11.625 25.6875 C-8.94422045 20.83370566 -6.8268553 16.21958658 -5 11 C-3.42238513 7.29290498 -1.80198048 3.60396095 0 0 Z " fill="#F8FBFE" transform="translate(504,431)"/>
<path d="M0 0 C0.66 0 1.32 0 2 0 C1.60467345 23.00081722 -7.71871201 40.17733984 -24 56 C-27.22331459 58.83317276 -30.53216276 61.47351963 -34 64 C-34.93392578 64.680625 -34.93392578 64.680625 -35.88671875 65.375 C-39.65104167 68 -39.65104167 68 -42 68 C-40.54937961 64.67473173 -38.71465685 62.52092008 -36.1875 59.9375 C-25.11408674 47.82985491 -16.69518967 33.41605299 -9 19 C-8.34 19 -7.68 19 -7 19 C-6.82984375 18.38253906 -6.6596875 17.76507813 -6.484375 17.12890625 C-4.77814576 11.1661796 -2.66418883 5.59885369 0 0 Z " fill="#F2F8FD" transform="translate(270,423)"/>
<path d="M0 0 C0.33 0 0.66 0 1 0 C1.2900384 6.44529768 1.50623796 12.12257875 -1.16015625 18.08203125 C-2.06490564 20.14822638 -2.64021466 22.2047702 -3.25 24.375 C-7.86123122 38.23246291 -20.67836326 49.50393414 -32 58 C-32.99 58.495 -32.99 58.495 -34 59 C-34.66 59.99 -35.32 60.98 -36 62 C-36.76953125 60.30078125 -36.76953125 60.30078125 -37 58 C-35.26171875 55.73046875 -35.26171875 55.73046875 -32.6875 53.1875 C-23.86947511 44.07496656 -17.44353151 33.16980869 -11.375 22.09765625 C-10.92125 21.40542969 -10.4675 20.71320313 -10 20 C-9.34 20 -8.68 20 -8 20 C-8 18.68 -8 17.36 -8 16 C-7.34 16 -6.68 16 -6 16 C-5.81824219 15.34773438 -5.63648438 14.69546875 -5.44921875 14.0234375 C-4.02533404 9.07269989 -2.50592766 4.53453577 0 0 Z " fill="#F3F9FD" transform="translate(564,272)"/>
<path d="M0 0 C0.33 0 0.66 0 1 0 C1 3.96 1 7.92 1 12 C0.01 12.495 0.01 12.495 -1 13 C-1.33 12.01 -1.66 11.02 -2 10 C-2.66 10 -3.32 10 -4 10 C-3.52449439 8.51965236 -3.04448784 7.04074979 -2.5625 5.5625 C-2.29566406 4.73878906 -2.02882813 3.91507812 -1.75390625 3.06640625 C-1 1 -1 1 0 0 Z " fill="#DAEDFC" transform="translate(564,272)"/>
<path d="M0 0 C0.33 0 0.66 0 1 0 C1 5.94 1 11.88 1 18 C0.67 18 0.34 18 0 18 C-0.33 14.37 -0.66 10.74 -1 7 C-1.99 7.495 -1.99 7.495 -3 8 C-1.125 2.25 -1.125 2.25 0 0 Z " fill="#DBEDFD" transform="translate(504,431)"/>
<path d="M0 0 C0.99 0 1.98 0 3 0 C1.69462516 2.61074968 -0.11051524 4.45612804 -2.0625 6.625 C-2.79597656 7.44226563 -3.52945313 8.25953125 -4.28515625 9.1015625 C-4.85105469 9.72804688 -5.41695312 10.35453125 -6 11 C-6.66 10.67 -7.32 10.34 -8 10 C-6.74054645 8.32471737 -5.46706318 6.65997386 -4.1875 5 C-3.47980469 4.071875 -2.77210938 3.14375 -2.04296875 2.1875 C-1.36878906 1.465625 -0.69460937 0.74375 0 0 Z " fill="#96CDFA" transform="translate(207,273)"/>
<path d="M0 0 C0.74609375 1.703125 0.74609375 1.703125 1 4 C-0.65234375 6.359375 -0.65234375 6.359375 -2.9375 8.75 C-4.06478516 9.94882812 -4.06478516 9.94882812 -5.21484375 11.171875 C-5.80394531 11.77515625 -6.39304687 12.3784375 -7 13 C-7 9.16235973 -5.73464665 7.88513915 -3.5 4.8125 C-2.8503125 3.91144531 -2.200625 3.01039063 -1.53125 2.08203125 C-1.0259375 1.39496094 -0.520625 0.70789063 0 0 Z " fill="#95CCFA" transform="translate(285,477)"/>
<path d="M0 0 C1.32 0.66 2.64 1.32 4 2 C3.67 2.66 3.34 3.32 3 4 C1.67511887 4.36548445 0.33981486 4.6937566 -1 5 C-2.3479743 5.63654342 -3.68596724 6.29605388 -5 7 C-3.35 4.69 -1.7 2.38 0 0 Z " fill="#99CEFA" transform="translate(508,135)"/>
<path d="M0 0 C0.66 0.66 1.32 1.32 2 2 C-0.31 4.31 -2.62 6.62 -5 9 C-5.66 8.67 -6.32 8.34 -7 8 C-4.69 5.36 -2.38 2.72 0 0 Z " fill="#88C6F9" transform="translate(478,508)"/>
</svg>
