<?xml version="1.0" standalone="no"?>
<!DOCTYPE svg PUBLIC "-//W3C//DTD SVG 20010904//EN"
 "http://www.w3.org/TR/2001/REC-SVG-20010904/DTD/svg10.dtd">
<svg version="1.0" xmlns="http://www.w3.org/2000/svg"
 width="385.000000pt" height="385.000000pt" viewBox="0 0 385.000000 385.000000"
 preserveAspectRatio="xMidYMid meet">
<metadata>
Created by potrace 1.14, written by Peter Selinger 2001-2017
</metadata>
<g transform="translate(0.000000,385.000000) scale(0.100000,-0.100000)"
fill="#000000" stroke="none">
<path d="M1312 3782 c-24 -2 -36 -10 -42 -28 -12 -31 -3 -54 21 -54 11 0 19
-7 19 -16 0 -8 5 -12 10 -9 12 7 110 -53 110 -68 0 -5 18 -29 40 -54 39 -45
47 -68 32 -88 -12 -17 -33 -17 -58 0 -13 8 -32 15 -42 15 -10 0 -23 5 -28 10
-15 15 -134 24 -134 11 0 -6 12 -14 28 -17 15 -4 37 -17 48 -28 12 -12 43 -36
69 -55 60 -44 128 -140 161 -227 14 -38 25 -70 24 -72 -1 -1 2 -22 6 -47 10
-72 -3 -150 -31 -177 -14 -13 -25 -27 -25 -31 0 -5 -14 -28 -30 -53 -17 -24
-29 -44 -26 -44 3 0 -3 -15 -13 -32 -10 -18 -21 -44 -24 -58 -3 -14 -21 -41
-39 -60 -18 -20 -51 -63 -72 -95 -22 -33 -56 -85 -76 -115 -40 -59 -110 -199
-110 -220 0 -6 -8 -24 -18 -38 -10 -15 -17 -37 -16 -50 1 -12 -3 -25 -8 -28
-4 -3 -6 -10 -2 -15 3 -5 0 -8 -7 -7 -9 2 -13 -14 -15 -52 -1 -30 -3 -58 -3
-62 -2 -13 -18 -9 -34 7 -8 8 -17 12 -20 9 -2 -3 -7 7 -11 21 -12 48 -35 28
-42 -38 -3 -23 -11 -60 -18 -82 -7 -22 -19 -58 -27 -80 -7 -22 -13 -56 -13
-75 -1 -19 -6 -33 -11 -31 -6 2 -16 6 -23 9 -29 11 -36 -21 -22 -108 18 -112
42 -203 66 -250 13 -25 33 -65 44 -90 12 -25 34 -70 50 -100 16 -30 29 -60 30
-65 0 -6 15 -27 33 -46 17 -19 40 -46 50 -59 9 -14 28 -41 42 -60 33 -45 17
-50 -37 -11 -41 29 -69 34 -99 16 -15 -10 11 -37 32 -32 9 3 28 -6 42 -19 20
-18 33 -22 65 -19 37 4 42 1 65 -33 22 -33 93 -114 144 -165 112 -110 273
-271 306 -304 23 -24 54 -47 68 -53 14 -6 34 -25 44 -43 10 -18 29 -40 42 -50
13 -10 21 -22 18 -27 -8 -12 14 -16 88 -14 52 1 67 -2 63 -12 -3 -7 1 -18 9
-24 10 -8 23 1 59 42 25 29 61 62 79 73 87 53 107 68 107 79 0 12 43 50 210
187 41 34 92 80 112 103 20 23 61 67 91 99 30 32 65 78 78 104 25 49 62 80 91
75 14 -3 18 3 18 24 0 26 0 27 -20 9 -11 -10 -20 -15 -20 -10 0 4 25 30 55 58
30 27 55 54 55 59 0 6 15 31 34 57 18 25 45 67 59 93 14 26 38 65 53 88 24 36
30 53 33 96 1 6 12 17 26 24 13 7 22 17 19 21 -2 4 0 10 5 13 17 11 31 65 18
72 -7 4 -9 4 -5 -1 9 -9 -9 -35 -23 -35 -5 0 -9 12 -9 26 0 18 6 28 20 31 11
3 23 16 26 28 3 13 15 25 26 28 22 6 20 25 -4 41 -25 15 -44 -7 -68 -82 -35
-107 -99 -194 -126 -171 -12 9 -12 16 0 38 8 14 22 47 31 74 9 26 21 45 26 42
5 -4 6 0 4 8 -3 7 1 29 9 49 8 19 17 46 20 59 3 13 8 35 11 49 11 51 18 169
10 187 -5 10 -9 22 -9 27 -1 5 -7 11 -14 14 -11 3 -26 -39 -26 -78 -1 -8 -11
-26 -23 -39 -12 -14 -28 -38 -35 -55 -14 -34 -119 -145 -170 -180 -143 -97
-237 -126 -296 -90 -66 38 -39 142 66 252 58 61 73 68 67 29 -3 -14 -1 -16 10
-7 8 7 19 9 24 6 6 -4 15 3 21 14 11 21 8 24 -22 21 -10 -1 -18 1 -18 4 0 15
24 52 50 76 26 24 28 31 28 115 0 49 5 100 10 114 18 49 -3 140 -29 124 -5 -3
-2 -12 6 -20 8 -9 15 -22 15 -29 0 -20 -21 -30 -31 -14 -18 29 -57 13 -55 -23
1 -29 31 -35 58 -11 21 17 21 17 15 -1 -4 -10 -10 -39 -13 -63 -7 -65 -54
-125 -54 -71 0 21 -1 21 -13 3 -13 -17 -14 -17 -20 4 -4 16 -11 20 -29 17 -12
-3 -26 -5 -30 -5 -3 -1 -9 -19 -13 -41 -8 -48 -30 -77 -87 -116 -24 -16 -52
-37 -62 -46 -11 -10 -27 -18 -35 -18 -13 1 -13 2 1 11 13 7 15 15 9 27 -5 9
-13 28 -18 41 l-9 25 -22 -22 c-29 -29 -28 -45 3 -40 14 3 30 -1 36 -8 9 -11
7 -14 -7 -15 -11 -1 -22 -1 -26 0 -4 0 -4 -7 -1 -17 3 -9 3 -14 -2 -10 -9 8
-56 -42 -50 -52 2 -3 -28 -17 -67 -31 -53 -18 -72 -21 -75 -11 -3 6 -9 10 -14
6 -5 -3 -9 2 -9 10 0 18 -21 21 -36 6 -13 -13 -92 -21 -100 -9 -3 5 -13 9 -23
9 -19 0 -96 53 -123 85 -53 61 -74 169 -53 265 23 104 121 218 285 332 125 86
193 149 238 217 84 128 93 161 88 339 -2 81 -5 154 -8 162 -18 63 -43 124 -67
161 -15 25 -31 56 -34 70 -4 14 -18 31 -32 39 -14 7 -25 18 -25 23 0 12 -138
147 -151 147 -5 0 -9 5 -9 10 0 6 -7 10 -15 10 -8 0 -15 4 -15 8 0 4 -51 33
-112 64 -80 40 -138 61 -198 73 -47 9 -89 21 -95 26 -5 5 -19 9 -30 9 -12 0
-30 8 -41 18 -11 11 -29 18 -39 16 -11 -2 -40 8 -64 22 -44 25 -108 34 -179
26z m196 -66 c21 -7 21 -36 0 -36 -5 0 -6 6 -2 13 4 6 3 8 -2 4 -14 -13 -13
-59 2 -53 14 6 104 -61 104 -78 0 -6 -5 -4 -11 4 -9 13 -10 13 -6 0 2 -8 10
-14 17 -12 7 1 18 -2 26 -9 7 -6 39 -24 71 -39 52 -26 59 -27 65 -12 4 9 7 14
7 10 1 -4 14 -2 30 3 22 8 36 7 58 -5 45 -23 57 -41 39 -59 -9 -8 -21 -17 -28
-20 -10 -4 -11 -7 0 -18 17 -18 15 -40 -3 -33 -8 4 -15 1 -15 -5 0 -6 7 -11
15 -11 32 0 109 -147 135 -259 12 -52 10 -177 -4 -200 -4 -6 -13 -8 -19 -4 -7
4 -19 8 -27 8 -12 0 -16 22 -21 108 -5 86 -12 121 -34 175 -26 60 -40 85 -96
168 -8 13 -28 33 -45 46 -16 12 -36 29 -44 38 -25 26 -129 100 -140 100 -5 0
-10 4 -10 9 0 5 -9 13 -20 16 -11 4 -18 11 -15 16 4 5 2 9 -4 9 -6 0 -22 17
-36 37 -16 24 -25 31 -25 21 0 -13 -5 -16 -19 -10 -19 7 -26 30 -8 24 5 -1 6
2 3 7 -4 5 -1 11 6 13 8 3 6 7 -5 11 -10 4 -17 2 -17 -5 0 -6 -6 -5 -17 3 -9
8 -18 13 -20 12 -1 -2 -14 -3 -28 -3 -16 0 -23 4 -19 13 5 15 119 16 162 3z
m-13 -135 c10 -17 -12 -21 -25 -6 -10 12 -10 15 3 15 9 0 18 -4 22 -9z m444
-68 c76 -45 90 -55 95 -70 11 -27 -14 -20 -85 23 -70 43 -99 68 -99 86 0 10
24 0 89 -39z m174 -67 c57 -69 48 -91 -13 -31 -27 27 -48 51 -45 53 2 3 0 13
-6 24 -18 34 23 5 64 -46z m-703 5 c0 -6 -4 -13 -10 -16 -5 -3 -10 1 -10 9 0
9 5 16 10 16 6 0 10 -4 10 -9z m803 -67 c-4 -13 -26 -11 -30 3 -2 6 4 10 14 9
10 -2 17 -7 16 -12z"/>
<path d="M1840 3406 c0 -2 7 -7 16 -10 8 -3 12 -2 9 4 -6 10 -25 14 -25 6z"/>
<path d="M1593 3770 c1 -11 5 -20 9 -20 4 0 8 9 8 20 0 11 -4 20 -9 20 -6 0
-9 -9 -8 -20z"/>
<path d="M1745 3720 c-3 -5 -5 -10 -3 -11 28 -7 38 -5 38 7 0 16 -26 19 -35 4z"/>
<path d="M2287 3494 c-3 -3 -3 -12 0 -19 6 -17 33 -8 33 11 0 14 -21 19 -33 8z"/>
<path d="M1267 2873 c-26 -7 -18 -47 11 -51 12 -2 22 0 23 5 0 4 2 18 5 31 4
22 -2 25 -39 15z"/>
<path d="M2130 1770 c0 -19 3 -21 12 -12 9 9 9 15 0 24 -9 9 -12 7 -12 -12z"/>
<path d="M3211 1366 c-13 -16 -11 -47 3 -58 11 -8 46 13 46 28 0 6 -8 18 -19
28 -16 14 -20 15 -30 2z"/>
<path d="M3249 1238 c-7 -25 -4 -37 11 -41 23 -6 30 0 30 25 0 11 -7 18 -20
18 -11 0 -20 -1 -21 -2z"/>
<path d="M710 1209 c-16 -29 -5 -49 25 -49 26 0 47 32 38 58 -8 20 -51 14 -63
-9z"/>
<path d="M3035 1090 c-3 -5 -4 -10 -1 -10 3 0 -3 -9 -14 -20 -11 -11 -17 -26
-14 -35 6 -15 19 -12 19 4 0 4 8 15 18 25 18 19 23 46 8 46 -6 0 -13 -4 -16
-10z"/>
<path d="M2770 736 c0 -22 3 -24 23 -17 12 5 22 15 22 22 0 8 -10 15 -22 17
-19 3 -23 -1 -23 -22z"/>
<path d="M1087 723 c-14 -13 -7 -41 12 -46 30 -8 53 11 41 34 -10 19 -40 26
-53 12z"/>
<path d="M1343 490 c-27 -11 -29 -32 -7 -54 19 -20 48 -21 63 -2 19 23 -27 67
-56 56z"/>
<path d="M2471 437 c-18 -20 -20 -28 -12 -50 10 -26 31 -37 31 -17 0 6 14 10
30 10 35 0 37 11 9 51 -25 35 -29 36 -58 6z"/>
<path d="M1620 211 c0 -28 19 -36 38 -17 15 15 15 18 2 26 -24 15 -40 12 -40
-9z"/>
</g>
</svg>
